# xmcd CD database file
#
# Track frame offsets:
#	150
#	20466
#	39250
#	54624
#	73436
#	89176
#	108909
#	129463
#	146569
#	166747
#	196203
#	216210
#	236165
#	250264
#
# Disc length: 3627 seconds
#
# Revision: 0
# Processed by: cddbd v1.5.2PL0 Copyright (c) Steve Scherf et al.
# Submitted via: CDex 1.51
#
DISCID=ce0e290e
DTITLE=The R.O.C. - Digital Voodoo
DYEAR=2017
DGENRE=Horrorcore
TTITLE0=The R.O.C. - Digital Voodoo
TTITLE1=The R.O.C. - Let Me Out (feat. G Mo Skee)
TTITLE2=The R.O.C. - Tear It Up (feat. Blaze and Boondox)
TTITLE3=The R.O.C. - The Chalmer
TTITLE4=The R.O.C. - Dr. No (feat. Jason Cortez)
TTITLE5=The R.O.C. - Hecklers (feat. Kuniva of D12 and Trick Trick)
TTITLE6=The R.O.C. - Clouds Black Out The Sun
TTITLE7=The R.O.C. - Still Running (feat. Sam Kay)
TTITLE8=The R.O.C. Feat. - Disgusted (feat. Twiztid and Britney Stoney)
TTITLE9=The R.O.C. - Sleeper Cell (feat. R.A. Da Rugged Man, Whitney Peyton and Redd)
TTITLE10=The R.O.C. - What Is Hell? (feat. Esham and Mastamind)
TTITLE11=The R.O.C. - When They Hear It (feat. Kung Fu Vampire and Prozak)
TTITLE12=The R.O.C. - Zombies At The Apocalypse (feat. Jahred of Hed P.E.)
TTITLE13=The R.O.C. - Revels In The Dark (feat. Lex The Hex Master and Sam Kay)
EXTD=YEAR: 2017
EXTT0=
EXTT1=
EXTT2=
EXTT3=
EXTT4=
EXTT5=
EXTT6=
EXTT7=
EXTT8=
EXTT9=
EXTT10=
EXTT11=
EXTT12=
EXTT13=
PLAYORDER=
